# xmcd
#
# Track frame offsets:
# 150
# 14879
# 28090
# 43651
# 59430
# 73636
# 88713
# 104745
# 119952
# 133191
# 148678
# 161798
# 176624
# 190433
# 204142
# 219228
# 233862
# 248695
# 262878
# 275880
#
# Disc length: 3857 seconds
#
# Revision: 3
# Processed by: cddbd v1.5.2PL0 Copyright (c) Steve Scherf et al.
# Submitted via: Axialis_AX_CDPlayer 2.6
#
DISCID=3f0f0f14
DTITLE=Glenn Miller - Jazz a fumetti 10/2 - Il "Mood" dello swing
DYEAR=1900
DGENRE=
TTITLE0=Pennsilvania 6-5000
TTITLE1=Little Brown Jug
TTITLE2=Chattanooga Choo-Choo
TTITLE3=Sunrise Serenade
TTITLE4=At Last
TTITLE5=(I've Got A Gall In) Kalamazoo
TTITLE6=Serenade In Blue
TTITLE7=Moonlight Cocktail
TTITLE8=Adios
TTITLE9=Stardust
TTITLE10=And The Angels Sing
TTITLE11=My Blue Heaven
TTITLE12=I Know Why (And So Do You)
TTITLE13=You Stepped Out Of A Dream
TTITLE14=Perfidia
TTITLE15=Don't Sit Under The Apple Tree
TTITLE16=The Nearnes Of You
TTITLE17=When Johnny Comes Marching Home
TTITLE18=Blueberry Hill
TTITLE19=Five O'Clock Whistle
EXTD=
EXTT0=
EXTT1=
EXTT2=
EXTT3=
EXTT4=
EXTT5=
EXTT6=
EXTT7=
EXTT8=
EXTT9=
EXTT10=
EXTT11=
EXTT12=
EXTT13=
EXTT14=
EXTT15=
EXTT16=
EXTT17=
EXTT18=
EXTT19=
PLAYORDER=
